<svg width="24" height="24" viewBox="0 0 24 24" fill="none" xmlns="http://www.w3.org/2000/svg">
<path d="M19 7.70001C16.41 7.70001 13.8044 7.70001 11.2067 7.70001C9.66667 7.70001 8.12667 7.70001 6.58667 7.70001H5" stroke="#292D32" stroke-width="1.8" stroke-linecap="round" stroke-linejoin="round"/>
<path d="M9 7L9.18857 5.67677C9.32571 4.71717 9.42857 4 10.8771 4H13.1229C14.5714 4 14.6829 4.75758 14.8114 5.68687L15 7" fill="#292D32"/>
<path d="M18 10L17.4307 18.6135C17.3343 19.9565 17.2555 21 14.8117 21H9.18832C6.74453 21 6.66569 19.9565 6.56934 18.6135L6 10" fill="#292D32"/>
<path d="M10.5 17H13.5" stroke="#F7F7F7" stroke-width="1.5" stroke-linecap="round" stroke-linejoin="round"/>
<path d="M10 13H14" stroke="#F7F7F7" stroke-width="1.5" stroke-linecap="round" stroke-linejoin="round"/>
</svg>
